<svg width="70" height="48" viewBox="0 0 70 48" fill="none" xmlns="http://www.w3.org/2000/svg">
<path fill-rule="evenodd" clip-rule="evenodd" d="M2 2C0.133 3.867 0 5.333 0 24C0 42.667 0.133 44.133 2 46C3.914 47.914 5.333 48 35 48C64.667 48 66.086 47.914 68 46C69.867 44.133 70 42.667 70 24C70 5.333 69.867 3.867 68 2C66.086 0.086 64.667 0 35 0C5.333 0 3.914 0.086 2 2ZM20.429 12.571C22.454 14.597 22.454 20.403 20.429 22.429C18.635 24.222 13.794 24.495 10.934 22.965C9.486 22.19 9 20.858 9 17.665C9 15.319 9.54 12.86 10.2 12.2C11.922 10.478 18.576 10.719 20.429 12.571ZM57.969 14.467C61.155 17.858 61.886 25.71 59.506 30.986C57.637 35.13 56.088 36.291 54.081 35.05C53.139 34.468 53.34 33.359 54.922 30.407C57.538 25.525 57.542 22.401 54.936 18.127C52.988 14.931 52.92 12 54.794 12C55.266 12 56.694 13.11 57.969 14.467ZM52.85 21C54.177 24.806 52.572 30 50.069 30C48.614 30 48.333 29.029 48.333 24C48.333 18.971 48.614 18 50.069 18C51.098 18 52.23 19.221 52.85 21Z" fill="#FE53B3"/>
</svg>
