<svg width="60" height="44" viewBox="0 0 60 44" fill="none" xmlns="http://www.w3.org/2000/svg">
<path fill-rule="evenodd" clip-rule="evenodd" d="M8.473 1.07177C6.995 3.46377 10.246 5.02777 16.696 5.02777C22.3 5.02777 23.103 5.25777 22.813 6.77777C22.534 8.24377 21.021 8.60877 13.5 9.02777C6.044 9.44277 4.465 9.81977 4.193 11.2478C3.899 12.7898 5.187 12.9958 16.683 13.2478C28.74 13.5108 29.5 13.6468 29.5 15.5278C29.5 17.3628 28.737 17.5518 20.25 17.8158C11.823 18.0768 11 18.2778 11 20.0658C11 21.7968 11.705 22.0278 17 22.0278C22.298 22.0278 23 22.2578 23 23.9928C23 25.7998 22.176 25.9808 12.75 26.2428C3.262 26.5068 2.5 26.6768 2.5 28.5278C2.5 30.1168 3.27 30.5918 6.25 30.8378C9.138 31.0768 10 31.5788 10 33.0218C10 34.3198 9.159 34.9918 7.259 35.2118C5.605 35.4018 4.385 36.2228 4.185 37.2778C3.917 38.6898 4.57 39.0278 7.562 39.0278C10.233 39.0278 11.919 39.7268 13.588 41.5278C16.521 44.6938 19.154 44.6988 22.145 41.5448C24.245 39.3308 25.32 39.0608 32.076 39.0448C38.875 39.0298 39.892 39.2838 42 41.5278C44.941 44.6578 47.069 44.6818 50.7 41.6268C52.27 40.3058 54.667 39.0688 56.027 38.8768C58.114 38.5818 58.606 37.8248 59.176 34.0278C60.486 25.3048 60.063 20.2278 57.555 14.5568L55.11 9.02777H48.424H41.738L42.287 5.64577C42.597 3.73677 42.349 1.77677 41.718 1.14577C40.238 -0.334226 9.384 -0.403227 8.473 1.07177ZM54.027 17.2778C57 23.8268 56.802 24.1698 50.25 23.8278L44.5 23.5278L44.605 19.8758C44.767 14.2858 45.577 13.0278 49.018 13.0278C51.672 13.0278 52.364 13.6148 54.027 17.2778ZM0 20.0278C0 21.7648 0.511 22.1018 2.75 21.8438C4.387 21.6558 5.5 20.9208 5.5 20.0278C5.5 19.1348 4.387 18.3998 2.75 18.2118C0.511 17.9538 0 18.2908 0 20.0278ZM20 36.5588C20 38.0718 17.363 39.7248 16.433 38.7948C16.169 38.5298 16.237 37.5748 16.583 36.6708C17.379 34.5978 20 34.5118 20 36.5588ZM48 37.0278C48 38.1388 47.333 39.0278 46.5 39.0278C44.978 39.0278 44.449 36.9128 45.667 35.6948C46.934 34.4268 48 35.0358 48 37.0278Z" fill="#FE53B3"/>
</svg>
