<svg xmlns="http://www.w3.org/2000/svg" xmlns:xlink="http://www.w3.org/1999/xlink" width="3840" zoomAndPan="magnify" viewBox="0 0 2880 2879.999992" height="3840" preserveAspectRatio="xMidYMid meet" version="1.2"><defs/><g id="270d102e8b"><rect x="0" width="2880" y="0" height="2879.999992" style="fill:#ffffff;fill-opacity:1;stroke:none;"/><rect x="0" width="2880" y="0" height="2879.999992" style="fill:#b689e0;fill-opacity:1;stroke:none;"/><g style="fill:#fe53b3;fill-opacity:1;"><g transform="translate(2265.812255, 2098.557133)"><path style="stroke:none" d="M 234.375 -288.25 C 277.476562 -288.25 314.070312 -273.207031 344.15625 -243.125 C 374.238281 -213.039062 389.28125 -176.445312 389.28125 -133.34375 C 389.28125 -91.144531 374.238281 -55.003906 344.15625 -24.921875 C 314.070312 5.160156 277.476562 20.203125 234.375 20.203125 C 192.164062 20.203125 156.019531 5.160156 125.9375 -24.921875 C 95.851562 -55.003906 80.8125 -91.144531 80.8125 -133.34375 C 80.8125 -176.445312 95.851562 -213.039062 125.9375 -243.125 C 156.019531 -273.207031 192.164062 -288.25 234.375 -288.25 Z M 234.375 -288.25 "/></g></g><g style="fill:#ffffff;fill-opacity:1;"><g transform="translate(287.999991, 2098.181804)"><path style="stroke:none" d="M 1439.203125 -994.328125 C 1559.617188 -994.328125 1654.363281 -958.835938 1723.4375 -887.859375 C 1792.519531 -816.878906 1827.0625 -714.210938 1827.0625 -579.859375 L 1827.0625 0 L 1764.3125 0 L 1764.3125 -576.0625 C 1764.3125 -692.664062 1735.789062 -781.703125 1678.75 -843.171875 C 1621.71875 -904.648438 1540.601562 -935.390625 1435.40625 -935.390625 C 1317.53125 -935.390625 1223.738281 -898.632812 1154.03125 -825.125 C 1084.320312 -751.613281 1049.46875 -654.019531 1049.46875 -532.34375 L 1049.46875 0 L 986.71875 0 L 986.71875 -576.0625 C 986.71875 -692.664062 958.195312 -781.703125 901.15625 -843.171875 C 844.125 -904.648438 763.644531 -935.390625 659.71875 -935.390625 C 540.570312 -935.390625 446.457031 -898.945312 377.375 -826.0625 C 308.300781 -753.1875 273.765625 -655.28125 273.765625 -532.34375 L 273.765625 0 L 211.03125 0 L 211.03125 -986.71875 L 271.875 -986.71875 L 271.875 -749.078125 C 302.289062 -825.117188 351.398438 -885.003906 419.203125 -928.734375 C 487.015625 -972.460938 568.453125 -994.328125 663.515625 -994.328125 C 758.578125 -994.328125 838.425781 -971.507812 903.0625 -925.875 C 967.707031 -880.25 1010.804688 -813.710938 1032.359375 -726.265625 C 1061.503906 -808.648438 1111.566406 -873.921875 1182.546875 -922.078125 C 1253.523438 -970.242188 1339.078125 -994.328125 1439.203125 -994.328125 Z M 1439.203125 -994.328125 "/></g></g></g></svg>