<svg xmlns="http://www.w3.org/2000/svg" xmlns:xlink="http://www.w3.org/1999/xlink" width="3840" zoomAndPan="magnify" viewBox="0 0 2880 809.999993" height="1080" preserveAspectRatio="xMidYMid meet" version="1.2"><defs/><g id="b7b5204bbd"><rect x="0" width="2880" y="0" height="809.999993" style="fill:#ffffff;fill-opacity:1;stroke:none;"/><rect x="0" width="2880" y="0" height="809.999993" style="fill:#b689e0;fill-opacity:1;stroke:none;"/><g style="fill:#fe53b3;fill-opacity:1;"><g transform="translate(2650.029719, 596.12697)"><path style="stroke:none" d="M 119.796875 -147.34375 C 141.828125 -147.34375 160.53125 -139.648438 175.90625 -124.265625 C 191.28125 -108.890625 198.96875 -90.1875 198.96875 -68.15625 C 198.96875 -46.582031 191.28125 -28.109375 175.90625 -12.734375 C 160.53125 2.640625 141.828125 10.328125 119.796875 10.328125 C 98.222656 10.328125 79.75 2.640625 64.375 -12.734375 C 49 -28.109375 41.3125 -46.582031 41.3125 -68.15625 C 41.3125 -90.1875 49 -108.890625 64.375 -124.265625 C 79.75 -139.648438 98.222656 -147.34375 119.796875 -147.34375 Z M 119.796875 -147.34375 "/></g></g><g style="fill:#ffffff;fill-opacity:1;"><g transform="translate(21.419823, 554.516985)"><path style="stroke:none" d="M 401.796875 -279.5625 C 436.171875 -279.5625 463.1875 -269.460938 482.84375 -249.265625 C 502.507812 -229.066406 512.34375 -200.015625 512.34375 -162.109375 L 512.34375 0 L 485.78125 0 L 485.78125 -159.984375 C 485.78125 -191.160156 478.160156 -214.894531 462.921875 -231.1875 C 447.679688 -247.488281 426.421875 -255.640625 399.140625 -255.640625 C 367.960938 -255.640625 343.25 -245.894531 325 -226.40625 C 306.75 -206.925781 297.625 -180.707031 297.625 -147.75 L 297.625 0 L 271.0625 0 L 271.0625 -159.984375 C 271.0625 -191.160156 263.441406 -214.894531 248.203125 -231.1875 C 232.960938 -247.488281 211.703125 -255.640625 184.421875 -255.640625 C 153.242188 -255.640625 128.53125 -245.894531 110.28125 -226.40625 C 92.03125 -206.925781 82.90625 -180.707031 82.90625 -147.75 L 82.90625 0 L 56.34375 0 L 56.34375 -277.4375 L 81.84375 -277.4375 L 81.84375 -217.90625 C 91.0625 -237.394531 104.789062 -252.539062 123.03125 -263.34375 C 141.28125 -274.15625 162.984375 -279.5625 188.140625 -279.5625 C 213.296875 -279.5625 234.644531 -273.890625 252.1875 -262.546875 C 269.726562 -251.210938 282.21875 -234.5625 289.65625 -212.59375 C 298.875 -233.144531 313.3125 -249.441406 332.96875 -261.484375 C 352.632812 -273.535156 375.578125 -279.5625 401.796875 -279.5625 Z M 401.796875 -279.5625 "/></g></g><g style="fill:#ffffff;fill-opacity:1;"><g transform="translate(586.903945, 554.516985)"><path style="stroke:none" d="M 149.875 -279.5625 C 184.25 -279.5625 210.644531 -270.789062 229.0625 -253.25 C 247.488281 -235.707031 256.703125 -209.929688 256.703125 -175.921875 L 256.703125 0 L 231.203125 0 L 231.203125 -49.421875 C 222.335938 -33.128906 209.398438 -20.460938 192.390625 -11.421875 C 175.390625 -2.390625 155.019531 2.125 131.28125 2.125 C 100.445312 2.125 76.082031 -5.132812 58.1875 -19.65625 C 40.300781 -34.1875 31.359375 -53.320312 31.359375 -77.0625 C 31.359375 -100.09375 39.59375 -118.78125 56.0625 -133.125 C 72.539062 -147.476562 98.851562 -154.65625 135 -154.65625 L 230.125 -154.65625 L 230.125 -176.984375 C 230.125 -202.847656 223.125 -222.507812 209.125 -235.96875 C 195.132812 -249.4375 174.675781 -256.171875 147.75 -256.171875 C 129.320312 -256.171875 111.691406 -252.984375 94.859375 -246.609375 C 78.035156 -240.234375 63.773438 -231.726562 52.078125 -221.09375 L 38.796875 -240.234375 C 52.617188 -252.628906 69.269531 -262.28125 88.75 -269.1875 C 108.238281 -276.101562 128.613281 -279.5625 149.875 -279.5625 Z M 135 -19.671875 C 158.03125 -19.671875 177.601562 -24.984375 193.71875 -35.609375 C 209.84375 -46.234375 221.976562 -61.644531 230.125 -81.84375 L 230.125 -133.9375 L 135.53125 -133.9375 C 108.25 -133.9375 88.492188 -128.972656 76.265625 -119.046875 C 64.046875 -109.128906 57.9375 -95.488281 57.9375 -78.125 C 57.9375 -60.050781 64.664062 -45.789062 78.125 -35.34375 C 91.59375 -24.894531 110.550781 -19.671875 135 -19.671875 Z M 135 -19.671875 "/></g></g><g style="fill:#ffffff;fill-opacity:1;"><g transform="translate(896.750945, 554.516985)"><path style="stroke:none" d="M 191.859375 -279.5625 C 226.585938 -279.5625 254.050781 -269.460938 274.25 -249.265625 C 294.445312 -229.066406 304.546875 -200.015625 304.546875 -162.109375 L 304.546875 0 L 277.96875 0 L 277.96875 -159.984375 C 277.96875 -191.160156 270.082031 -214.894531 254.3125 -231.1875 C 238.550781 -247.488281 216.492188 -255.640625 188.140625 -255.640625 C 155.546875 -255.640625 129.859375 -245.894531 111.078125 -226.40625 C 92.296875 -206.925781 82.90625 -180.707031 82.90625 -147.75 L 82.90625 0 L 56.34375 0 L 56.34375 -277.4375 L 81.84375 -277.4375 L 81.84375 -217.375 C 91.414062 -236.863281 105.675781 -252.097656 124.625 -263.078125 C 143.582031 -274.066406 165.992188 -279.5625 191.859375 -279.5625 Z M 191.859375 -279.5625 "/></g></g><g style="fill:#ffffff;fill-opacity:1;"><g transform="translate(1254.430308, 554.516985)"><path style="stroke:none" d="M 56.34375 -277.4375 L 82.90625 -277.4375 L 82.90625 0 L 56.34375 0 Z M 69.625 -344.9375 C 63.59375 -344.9375 58.453125 -346.972656 54.203125 -351.046875 C 49.953125 -355.117188 47.828125 -360.164062 47.828125 -366.1875 C 47.828125 -372.21875 49.953125 -377.359375 54.203125 -381.609375 C 58.453125 -385.859375 63.59375 -387.984375 69.625 -387.984375 C 75.644531 -387.984375 80.78125 -385.945312 85.03125 -381.875 C 89.28125 -377.800781 91.40625 -372.75 91.40625 -366.71875 C 91.40625 -360.695312 89.28125 -355.5625 85.03125 -351.3125 C 80.78125 -347.0625 75.644531 -344.9375 69.625 -344.9375 Z M 69.625 -344.9375 "/></g></g><g style="fill:#ffffff;fill-opacity:1;"><g transform="translate(1393.143999, 554.516985)"><path style="stroke:none" d="M 139.78125 -373.640625 C 105.050781 -373.640625 87.6875 -355.035156 87.6875 -317.828125 L 87.6875 -277.4375 L 176.453125 -277.4375 L 176.453125 -254.578125 L 88.21875 -254.578125 L 88.21875 0 L 61.65625 0 L 61.65625 -254.578125 L 10.625 -254.578125 L 10.625 -277.4375 L 61.65625 -277.4375 L 61.65625 -319.953125 C 61.65625 -343.335938 68.382812 -361.9375 81.84375 -375.75 C 95.3125 -389.570312 114.269531 -396.484375 138.71875 -396.484375 C 149.34375 -396.484375 159.523438 -394.976562 169.265625 -391.96875 C 179.015625 -388.957031 187.078125 -384.441406 193.453125 -378.421875 L 182.828125 -358.21875 C 171.492188 -368.5 157.144531 -373.640625 139.78125 -373.640625 Z M 139.78125 -373.640625 "/></g></g><g style="fill:#ffffff;fill-opacity:1;"><g transform="translate(1562.682739, 554.516985)"><path style="stroke:none" d="M 290.71875 -132.34375 L 52.078125 -132.34375 C 52.785156 -110.726562 58.273438 -91.503906 68.546875 -74.671875 C 78.828125 -57.835938 92.738281 -44.816406 110.28125 -35.609375 C 127.820312 -26.398438 147.578125 -21.796875 169.546875 -21.796875 C 187.617188 -21.796875 204.359375 -25.070312 219.765625 -31.625 C 235.179688 -38.175781 248.023438 -47.832031 258.296875 -60.59375 L 273.71875 -43.046875 C 261.664062 -28.523438 246.515625 -17.363281 228.265625 -9.5625 C 210.023438 -1.769531 190.273438 2.125 169.015625 2.125 C 141.378906 2.125 116.753906 -3.894531 95.140625 -15.9375 C 73.523438 -27.988281 56.601562 -44.644531 44.375 -65.90625 C 32.15625 -87.164062 26.046875 -111.4375 26.046875 -138.71875 C 26.046875 -165.644531 31.800781 -189.828125 43.3125 -211.265625 C 54.832031 -232.703125 70.6875 -249.441406 90.875 -261.484375 C 111.070312 -273.535156 133.75 -279.5625 158.90625 -279.5625 C 184.070312 -279.5625 206.660156 -273.625 226.671875 -261.75 C 246.691406 -249.882812 262.457031 -233.320312 273.96875 -212.0625 C 285.488281 -190.800781 291.25 -166.707031 291.25 -139.78125 Z M 158.90625 -256.171875 C 139.425781 -256.171875 121.890625 -251.828125 106.296875 -243.140625 C 90.703125 -234.460938 78.210938 -222.238281 68.828125 -206.46875 C 59.441406 -190.707031 54.035156 -172.90625 52.609375 -153.0625 L 265.203125 -153.0625 C 264.140625 -172.90625 258.828125 -190.617188 249.265625 -206.203125 C 239.703125 -221.796875 227.125 -234.019531 211.53125 -242.875 C 195.9375 -251.738281 178.394531 -256.171875 158.90625 -256.171875 Z M 158.90625 -256.171875 "/></g></g><g style="fill:#ffffff;fill-opacity:1;"><g transform="translate(1879.970494, 554.516985)"><path style="stroke:none" d="M 126.5 2.125 C 104.175781 2.125 82.914062 -1.238281 62.71875 -7.96875 C 42.519531 -14.707031 26.75 -23.210938 15.40625 -33.484375 L 27.640625 -54.75 C 38.972656 -45.175781 53.585938 -37.203125 71.484375 -30.828125 C 89.378906 -24.453125 108.070312 -21.265625 127.5625 -21.265625 C 155.550781 -21.265625 176.1875 -25.867188 189.46875 -35.078125 C 202.757812 -44.285156 209.40625 -57.039062 209.40625 -73.34375 C 209.40625 -85.039062 205.769531 -94.253906 198.5 -100.984375 C 191.238281 -107.710938 182.289062 -112.671875 171.65625 -115.859375 C 161.03125 -119.046875 146.332031 -122.414062 127.5625 -125.96875 C 105.59375 -129.863281 87.875 -134.113281 74.40625 -138.71875 C 60.945312 -143.320312 49.429688 -150.757812 39.859375 -161.03125 C 30.296875 -171.3125 25.515625 -185.488281 25.515625 -203.5625 C 25.515625 -225.53125 34.632812 -243.6875 52.875 -258.03125 C 71.125 -272.382812 97.082031 -279.5625 130.75 -279.5625 C 148.457031 -279.5625 165.992188 -277.078125 183.359375 -272.109375 C 200.722656 -267.148438 214.894531 -260.597656 225.875 -252.453125 L 213.65625 -231.203125 C 202.320312 -239.347656 189.390625 -245.546875 174.859375 -249.796875 C 160.328125 -254.046875 145.445312 -256.171875 130.21875 -256.171875 C 104.351562 -256.171875 84.863281 -251.382812 71.75 -241.8125 C 58.632812 -232.25 52.078125 -219.675781 52.078125 -204.09375 C 52.078125 -191.6875 55.796875 -182.03125 63.234375 -175.125 C 70.679688 -168.21875 79.804688 -163.078125 90.609375 -159.703125 C 101.421875 -156.335938 116.570312 -152.707031 136.0625 -148.8125 C 157.675781 -144.914062 175.125 -140.753906 188.40625 -136.328125 C 201.695312 -131.898438 212.945312 -124.722656 222.15625 -114.796875 C 231.375 -104.878906 235.984375 -91.238281 235.984375 -73.875 C 235.984375 -50.84375 226.414062 -32.414062 207.28125 -18.59375 C 188.144531 -4.78125 161.21875 2.125 126.5 2.125 Z M 126.5 2.125 "/></g></g><g style="fill:#ffffff;fill-opacity:1;"><g transform="translate(2134.013152, 554.516985)"><path style="stroke:none" d="M 193.984375 -17.53125 C 187.253906 -11.15625 178.835938 -6.285156 168.734375 -2.921875 C 158.640625 0.441406 148.101562 2.125 137.125 2.125 C 113.03125 2.125 94.425781 -4.515625 81.3125 -17.796875 C 68.207031 -31.085938 61.65625 -49.601562 61.65625 -73.34375 L 61.65625 -254.578125 L 10.625 -254.578125 L 10.625 -277.4375 L 61.65625 -277.4375 L 61.65625 -338.03125 L 88.21875 -338.03125 L 88.21875 -277.4375 L 176.453125 -277.4375 L 176.453125 -254.578125 L 88.21875 -254.578125 L 88.21875 -76 C 88.21875 -57.925781 92.554688 -44.195312 101.234375 -34.8125 C 109.921875 -25.425781 122.769531 -20.734375 139.78125 -20.734375 C 157.144531 -20.734375 171.492188 -25.867188 182.828125 -36.140625 Z M 193.984375 -17.53125 "/></g></g><g style="fill:#ffffff;fill-opacity:1;"><g transform="translate(2335.439842, 554.516985)"><path style="stroke:none" d="M 290.71875 -132.34375 L 52.078125 -132.34375 C 52.785156 -110.726562 58.273438 -91.503906 68.546875 -74.671875 C 78.828125 -57.835938 92.738281 -44.816406 110.28125 -35.609375 C 127.820312 -26.398438 147.578125 -21.796875 169.546875 -21.796875 C 187.617188 -21.796875 204.359375 -25.070312 219.765625 -31.625 C 235.179688 -38.175781 248.023438 -47.832031 258.296875 -60.59375 L 273.71875 -43.046875 C 261.664062 -28.523438 246.515625 -17.363281 228.265625 -9.5625 C 210.023438 -1.769531 190.273438 2.125 169.015625 2.125 C 141.378906 2.125 116.753906 -3.894531 95.140625 -15.9375 C 73.523438 -27.988281 56.601562 -44.644531 44.375 -65.90625 C 32.15625 -87.164062 26.046875 -111.4375 26.046875 -138.71875 C 26.046875 -165.644531 31.800781 -189.828125 43.3125 -211.265625 C 54.832031 -232.703125 70.6875 -249.441406 90.875 -261.484375 C 111.070312 -273.535156 133.75 -279.5625 158.90625 -279.5625 C 184.070312 -279.5625 206.660156 -273.625 226.671875 -261.75 C 246.691406 -249.882812 262.457031 -233.320312 273.96875 -212.0625 C 285.488281 -190.800781 291.25 -166.707031 291.25 -139.78125 Z M 158.90625 -256.171875 C 139.425781 -256.171875 121.890625 -251.828125 106.296875 -243.140625 C 90.703125 -234.460938 78.210938 -222.238281 68.828125 -206.46875 C 59.441406 -190.707031 54.035156 -172.90625 52.609375 -153.0625 L 265.203125 -153.0625 C 264.140625 -172.90625 258.828125 -190.617188 249.265625 -206.203125 C 239.703125 -221.796875 227.125 -234.019531 211.53125 -242.875 C 195.9375 -251.738281 178.394531 -256.171875 158.90625 -256.171875 Z M 158.90625 -256.171875 "/></g></g></g></svg>