<svg width="64" height="66" viewBox="0 0 64 66" fill="none" xmlns="http://www.w3.org/2000/svg">
<path fill-rule="evenodd" clip-rule="evenodd" d="M1.75 1.08C0.143 2.016 0 4.626 0 33.015C0 62.556 0.086 63.976 1.934 64.965C3.014 65.542 10.306 66 18.434 66C35.749 66 37 65.401 37 57.119V52.237L32.585 51.126C27.019 49.724 22.244 45.746 19.88 40.541C15.094 30.005 21.106 17.836 32.619 14.757L37 13.585V8.793C37 5.333 36.444 3.444 35 2C32.21 -0.79 28.642 -0.567 27 2.5C25.76 4.817 25.126 5 18.354 5C11.662 5 10.908 4.789 9.408 2.5C7.693 -0.117 4.744 -0.664 1.75 1.08ZM13.245 1.25C13.886 3.199 22.61 3.458 23.343 1.55C23.836 0.265 22.989 0 18.385 0C14.391 0 12.949 0.351 13.245 1.25ZM47.502 5.996C46.524 7.579 47.906 9 50.424 9C54.884 9 61 15.911 61 20.95C61 22.106 61.655 23 62.5 23C64.827 23 64.365 16.837 61.747 12.952C58.421 8.017 49.074 3.453 47.502 5.996ZM47.182 13.706C47.363 14.645 48.633 15.671 50.005 15.987C51.721 16.382 52.799 17.568 53.457 19.781C54.661 23.831 57 24.034 57 20.089C57 18.066 56.061 16.388 53.923 14.589C50.349 11.581 46.68 11.101 47.182 13.706ZM29.241 19.995C17.093 27.401 20.92 46.421 34.827 47.757C43.821 48.622 50.773 43.196 51.747 34.55C53.11 22.457 39.568 13.698 29.241 19.995ZM38.006 22.309C38.01 22.964 39.36 24.267 41.006 25.203C42.653 26.14 44 27.603 44 28.453C44 30.171 41.468 30.566 40.5 29C40.16 28.45 38.559 28 36.941 28C32.87 28 33.102 30.65 37.25 31.532C44.151 32.999 46.13 37.881 41.006 40.797C39.36 41.733 38.01 43.036 38.006 43.691C37.995 45.749 36.016 46.211 35.338 44.313C34.982 43.316 33.559 41.559 32.177 40.41C30.432 38.959 29.874 37.77 30.353 36.524C30.968 34.921 31.228 34.887 32.771 36.212C35.193 38.291 37.46 38.952 38.969 38.019C40.81 36.881 39.517 35.353 36.141 34.678C30.17 33.484 28.066 28.314 32.396 25.476C33.713 24.613 35.033 22.983 35.328 21.853C35.874 19.767 37.995 20.128 38.006 22.309ZM21 59.5C21 60.5 20 61 18 61C15.133 61 14.233 60.1 15.667 58.667C16.976 57.358 21 57.986 21 59.5Z" fill="#FE53B3"/>
</svg>
